<svg width="41" height="40" viewBox="0 0 41 40" fill="none" xmlns="http://www.w3.org/2000/svg">
<path d="M20.5001 0C9.17837 0 0 8.9784 0 20.0535C0 30.4245 8.04798 38.9566 18.368 39.9997V11.6226L9.30556 8.16989H18.3677L20.4999 6.96552L22.632 8.16989H31.6942L22.632 11.6226V40C32.952 38.956 41 30.4245 41 20.0535C41.0003 8.9784 31.8222 0 20.5001 0ZM14.5944 13.8498V34.213L10.3298 29.1154V16.4073L7.14141 15.1795L6.23424 16.8519L4.75579 10.0552L14.5944 13.8498ZM34.766 16.8519L33.8589 15.1795L30.6705 16.4073V29.1154L26.4062 34.213V13.8498L36.2442 10.0552L34.766 16.8519Z" fill="#FF671F"/>
</svg>
